<?xml version="1.0" encoding="UTF-8" standalone="no"?>
<svg width="64px" height="47px" viewBox="0 0 64 47" version="1.1" xmlns="http://www.w3.org/2000/svg" xmlns:xlink="http://www.w3.org/1999/xlink" xmlns:sketch="http://www.bohemiancoding.com/sketch/ns">
    <!-- Generator: Sketch 3.4.4 (17249) - http://www.bohemiancoding.com/sketch -->
    <title>cake</title>
    <desc>Created with Sketch.</desc>
    <defs></defs>
    <g id="Page-1" stroke="none" stroke-width="1" fill="none" fill-rule="evenodd" sketch:type="MSPage">
        <g id="cake" sketch:type="MSLayerGroup" fill="#FF6464">
            <g id="Layer_1" sketch:type="MSShapeGroup">
                <path d="M63,39.7 L58,39.7 L58,18.4 C58,15.2 55.9,11.7 52.6,11.7 L33.7,11.7 L38.1,7.4 L38.2,7.3 C39.4,5.6 39.7,2.7 37.9,0.9 C37.3,0.3 36.5,0 35.6,0 C34.5,0 33.2,0.5 32,1.4 C30.8,0.5 29.6,0 28.5,0 C27.6,0 26.8,0.3 26.2,0.9 C24.4,2.7 24.3,5.6 26.1,7.5 L30.5,11.8 L12.3,11.8 C9.1,11.7 6,15 6,18.4 L6,39.7 L1,39.7 C0.4,39.7 0,40.2 0,40.7 C0,44 2.7,46.7 6,46.7 L58,46.7 C61.3,46.7 64,44 64,40.7 C64,40.2 63.6,39.7 63,39.7 L63,39.7 Z M27.5,2.2 C27.7,2 28,1.8 28.4,1.8 C29.2,1.8 30.3,2.4 31.3,3.2 C31.7,3.6 32.3,3.6 32.7,3.2 C33.6,2.3 34.8,1.8 35.6,1.8 C36,1.8 36.3,1.9 36.5,2.2 C37.5,3.2 37.4,4.9 36.7,6 L32.1,10.5 L27.5,6 C26.5,4.9 26.5,3.2 27.5,2.2 L27.5,2.2 Z M58,44.7 L6,44.7 C4.2,44.7 2.6,43.7 2.2,41.7 L61.9,41.7 C61.4,43.7 59.9,44.7 58,44.7 L58,44.7 Z M8,31.7 L56,31.7 L56,33.7 L8,33.7 L8,31.7 L8,31.7 Z M8,30.7 L8,24.8 C9.1,25.8 10.5,26.4 12,26.4 C14.1,26.4 15.9,25.3 17,23.6 C18.1,25.3 19.9,26.4 22,26.4 C24.1,26.4 25.9,25.3 27,23.6 C28.1,25.3 29.9,26.4 32,26.4 C34.1,26.4 35.9,25.3 37,23.6 C38.1,25.3 39.9,26.4 42,26.4 C44.1,26.4 45.9,25.3 47,23.6 C48.1,25.3 49.9,26.4 52,26.4 C53.5,26.4 54.9,25.8 56,24.8 L56,30.7 L8,30.7 L8,30.7 Z M8,34.7 L56,34.7 L56,39.7 L8,39.7 L8,34.7 L8,34.7 Z M8,18.4 C8,16.1 10.3,13.7 12.3,13.7 L52.5,13.7 C54.5,13.7 55.9,16.1 55.9,18.4 L55.9,20.1 C55.9,22.4 54.1,24.3 51.9,24.3 C49.7,24.3 47.9,22.4 47.9,20.1 C47.9,19.5 47.5,19.1 46.9,19.1 C46.3,19.1 45.9,19.5 45.9,20.1 C45.9,22.4 44.1,24.3 41.9,24.3 C39.7,24.3 37.9,22.4 37.9,20.1 C37.9,19.5 37.5,19.1 36.9,19.1 C36.3,19.1 35.9,19.5 35.9,20.1 C35.9,22.4 34.1,24.3 31.9,24.3 C29.7,24.3 27.9,22.4 27.9,20.1 C27.9,19.5 27.5,19.1 26.9,19.1 C26.3,19.1 25.9,19.5 25.9,20.1 C25.9,22.4 24.1,24.3 21.9,24.3 C19.7,24.3 17.9,22.4 17.9,20.1 C17.9,19.5 17.5,19.1 16.9,19.1 C16.3,19.1 15.9,19.5 15.9,20.1 C15.9,22.4 14.1,24.3 11.9,24.3 C9.7,24.3 7.9,22.4 7.9,20.1 L7.9,18.4 L8,18.4 Z" id="Shape"></path>
            </g>
        </g>
    </g>
</svg>