<?xml version="1.0" ?><!DOCTYPE svg  PUBLIC '-//W3C//DTD SVG 1.1//EN'  'http://www.w3.org/Graphics/SVG/1.1/DTD/svg11.dtd'><svg enable-background="new 0 0 64 64" id="Layer_1" version="1.1" viewBox="0 0 64 64" xml:space="preserve" xmlns="http://www.w3.org/2000/svg" xmlns:xlink="http://www.w3.org/1999/xlink"><g><g><path d="M48.7,20.7H46v-6.4c0-0.6-0.2-0.6-0.8-0.6H6.7c-0.6,0-0.7,0-0.7,0.6v46.6c0,1.7,1.1,2.9,2.9,2.9h34.2     c1.7,0,2.9-1.1,2.9-2.9v-8.1h2.4C56,52.7,62,46.9,62,39.1v-4.6C62,27,56.2,20.7,48.7,20.7z M60,39.1c0,6.6-5.1,11.6-11.6,11.6     h-3.2c-0.6,0-1.2,0.9-1.2,1.5v8.7c0,0.6-0.3,0.9-0.9,0.9H8.9c-0.6,0-0.9-0.2-0.9-0.9V15.7h36v6.2c0,0.6,0.7,0.8,1.2,0.8h3.5     c6.4,0,11.3,5.4,11.3,11.9V39.1z" fill="#4D4D4D"/><path d="M48.4,25.7h-2.6c-0.6,0-0.8,0.8-0.8,1.4v19.4c0,0.6,0.2,1.3,0.8,1.3h2.6c4.6,0,8.6-4.1,8.6-8.7v-4.4     C57,29.9,53,25.7,48.4,25.7z M55,39c0,3.6-3.1,6.7-6.6,6.7H47v-18h1.4c3.5,0,6.6,3.3,6.6,6.9V39z" fill="#4D4D4D"/><path d="M31.2,29.5c-1.6,0-3.6,0.8-5.3,2.3c-1.8-1.4-3.7-2.3-5.3-2.3c-1.2,0-2.3,0.5-3.2,1.3     c-2.6,2.6-2.6,6.7-0.1,9.3l7.9,8.1c0.2,0.2,0.4,0.3,0.7,0.3c0,0,0,0,0,0c0.3,0,0.5-0.1,0.7-0.3l7.9-8.1c2.5-2.6,2.5-6.8-0.1-9.3     C33.5,29.9,32.4,29.5,31.2,29.5z M33,38.7l-7.2,7.3l-7.2-7.3C17,36.9,17,34,18.8,32.2c0.5-0.5,1-0.7,1.7-0.7     c1.3,0,3.1,0.9,4.7,2.3c0.4,0.4,1,0.4,1.4,0c1.5-1.4,3.3-2.3,4.7-2.3c0.7,0,1.3,0.2,1.7,0.7C34.7,34,34.8,36.9,33,38.7z" fill="#4D4D4D"/><path d="M21,11.7c0.6,0,1-0.4,1-1v-6c0-0.6-0.4-1-1-1s-1,0.4-1,1v6C20,11.2,20.4,11.7,21,11.7z" fill="#4D4D4D"/><path d="M27,8.7c0.6,0,1-0.4,1-1v-6c0-0.6-0.4-1-1-1s-1,0.4-1,1v6C26,8.2,26.4,8.7,27,8.7z" fill="#4D4D4D"/><path d="M33,10.7c0.6,0,1-0.4,1-1v-6c0-0.6-0.4-1-1-1c-0.6,0-1,0.4-1,1v6C32,10.2,32.4,10.7,33,10.7z" fill="#4D4D4D"/></g></g></svg>