<?xml version="1.0" encoding="UTF-8" standalone="no"?>
<svg width="64px" height="44px" viewBox="0 0 64 44" version="1.1" xmlns="http://www.w3.org/2000/svg" xmlns:xlink="http://www.w3.org/1999/xlink" xmlns:sketch="http://www.bohemiancoding.com/sketch/ns">
    <!-- Generator: Sketch 3.4.4 (17249) - http://www.bohemiancoding.com/sketch -->
    <title>lovenvelop</title>
    <desc>Created with Sketch.</desc>
    <defs></defs>
    <g id="Page-1" stroke="none" stroke-width="1" fill="none" fill-rule="evenodd" sketch:type="MSPage">
        <g id="lovenvelop" sketch:type="MSLayerGroup" fill="#FF6464">
            <g id="Layer_1" sketch:type="MSShapeGroup">
                <path d="M64,1.6 L64,1.4 C64,1.3 63.9,1.3 63.9,1.2 C63.9,1.2 63.9,1.1 63.8,1.1 L63.8,1.1 C63.8,1 63.7,1 63.6,1 L63.5,0.9 L63.3,0.9 C63.2,0.9 63.2,0.8 63.1,0.8 L63.1,0.8 L1,0.8 L1,0.8 C0.9,0.8 0.9,0.8 0.8,0.9 L0.6,0.9 C0.5,0.9 0.5,1 0.4,1 C0.3,1 0.3,1.1 0.2,1.1 L0.2,1.1 C0.2,1.1 0.2,1.2 0.1,1.2 C0.1,1.3 5.55111512e-17,1.3 5.55111512e-17,1.4 L5.55111512e-17,1.6 L5.55111512e-17,1.7 L5.55111512e-17,42.3 C5.55111512e-17,42.9 0.4,43.7 1,43.7 L63,43.7 C63.6,43.7 64,42.8 64,42.3 L64,1.7 L64,1.6 L64,1.6 Z M36.1,26 L32.2,29.9 L28.4,26 C27.6,25.1 27.6,23.7 28.4,22.8 C28.6,22.6 28.8,22.5 29.1,22.5 C29.8,22.5 30.7,23 31.5,23.7 C31.9,24.1 32.5,24.1 32.9,23.7 C33.7,22.9 34.7,22.5 35.3,22.5 C35.6,22.5 35.8,22.6 36,22.8 C36.9,23.7 37,25.1 36.1,26 L36.1,26 Z M37.5,21.4 C36.9,20.8 36.2,20.5 35.4,20.5 C34.2,20.5 33,21.1 32.3,21.7 C31.6,21.1 30.4,20.5 29.2,20.5 C28.4,20.5 27.6,20.8 27.1,21.4 C27,21.5 26.9,21.7 26.7,21.8 L3.8,2.7 L60.3,2.7 L37.6,21.6 C37.6,21.6 37.5,21.5 37.5,21.4 L37.5,21.4 Z M2,41.7 L2,3.9 L25.8,23.8 C25.6,25.1 26,26.4 26.9,27.4 L31.5,32.1 C31.7,32.3 31.9,32.4 32.2,32.4 L32.2,32.4 C32.5,32.4 32.7,32.3 32.9,32.1 L37.5,27.4 C38.5,26.3 38.9,24.8 38.5,23.4 L62,3.9 L62,41.7 L2,41.7 L2,41.7 Z" id="Shape"></path>
            </g>
        </g>
    </g>
</svg>