<?xml version="1.0" ?><!DOCTYPE svg  PUBLIC '-//W3C//DTD SVG 1.1//EN'  'http://www.w3.org/Graphics/SVG/1.1/DTD/svg11.dtd'><svg enable-background="new 0 0 65 65" height="65px" version="1.1" viewBox="0 0 65 65" width="65px" xml:space="preserve" xmlns="http://www.w3.org/2000/svg" xmlns:xlink="http://www.w3.org/1999/xlink"><g id="Layer_2"><g><path d="M14.422,21.232l1.01,3.321c0.111,0.401,0.249,0.899,0.333,1.26h0.042c0.097-0.36,0.208-0.872,0.304-1.26    l0.831-3.321h2.256l-1.578,4.457c-0.969,2.684-1.62,3.764-2.381,4.441c-0.733,0.637-1.508,0.858-2.034,0.928l-0.443-1.785    c0.263-0.041,0.595-0.166,0.914-0.359c0.318-0.166,0.664-0.499,0.872-0.845c0.069-0.097,0.111-0.208,0.111-0.305    c0-0.069-0.014-0.18-0.097-0.346l-2.478-6.187H14.422z" fill="#FFBE06"/></g><g><path d="M50.45,33.232l0.664,1.121c0.194,0.346,0.374,0.691,0.554,1.01h0.028c0.18-0.359,0.346-0.705,0.526-1.037    l0.595-1.094H55.1l-2.228,3.225L55.127,40h-2.38l-0.678-1.218c-0.194-0.332-0.36-0.679-0.526-1.024h-0.042    c-0.166,0.359-0.346,0.692-0.512,1.024L50.353,40h-2.311l2.297-3.446l-2.242-3.321H50.45z" fill="#FFBE06"/></g><path d="M55,13H8c-2.757,0-5,2.396-5,5.343v29.314C3,50.604,5.243,53,8,53h47c2.757,0,5-2.396,5-5.343V18.343   C60,15.396,57.757,13,55,13z M5,47V19h53v28H5z M8,15h47c1.549,0,2.813,1.32,2.969,3H5.031C5.188,16.32,6.451,15,8,15z M55,51H8   c-1.549,0-2.813-1.32-2.969-3h52.938C57.813,49.68,56.549,51,55,51z" fill="#92278F"/><path d="M54,44H9c-0.552,0-1-0.447-1-1V22c0-0.553,0.448-1,1-1s1,0.447,1,1v20h44c0.552,0,1,0.447,1,1   S54.552,44,54,44z" fill="#FFBE06"/><path d="M15,40c-0.285,0-0.567-0.121-0.766-0.355c-0.355-0.423-0.301-1.054,0.121-1.409l10-8.421   c0.264-0.223,0.625-0.294,0.952-0.187l12.472,4.039l13.576-11.432c0.422-0.356,1.052-0.302,1.409,0.12   c0.355,0.423,0.301,1.054-0.121,1.409l-14,11.789c-0.264,0.223-0.623,0.296-0.952,0.187L25.22,31.701l-9.576,8.063   C15.457,39.923,15.228,40,15,40z" fill="#00A651"/><path d="M52,29c-0.552,0-1-0.447-1-1v-4h-4c-0.552,0-1-0.447-1-1s0.448-1,1-1h5c0.552,0,1,0.447,1,1v5   C53,28.553,52.552,29,52,29z" fill="#00A651"/><g><line fill="#FFFFFF" x1="22" x2="25" y1="64" y2="52"/><path d="M22.001,65c-0.081,0-0.162-0.01-0.244-0.03c-0.536-0.134-0.861-0.677-0.728-1.212l3-12    c0.135-0.537,0.678-0.862,1.213-0.728c0.536,0.134,0.861,0.677,0.728,1.212l-3,12C22.856,64.697,22.449,65,22.001,65z" fill="#92278F"/></g><g><line fill="#FFFFFF" x1="42" x2="39" y1="64" y2="52"/><path d="M41.999,65c-0.448,0-0.855-0.303-0.969-0.758l-3-12c-0.134-0.535,0.192-1.078,0.728-1.212    c0.535-0.135,1.079,0.19,1.213,0.728l3,12c0.134,0.535-0.192,1.078-0.728,1.212C42.161,64.99,42.08,65,41.999,65z" fill="#92278F"/></g></g><g id="Layer_3"/></svg>