<?xml version="1.0" encoding="UTF-8" standalone="no"?>
<svg width="50px" height="64px" viewBox="0 0 50 64" version="1.1" xmlns="http://www.w3.org/2000/svg" xmlns:xlink="http://www.w3.org/1999/xlink" xmlns:sketch="http://www.bohemiancoding.com/sketch/ns">
    <!-- Generator: Sketch 3.4.4 (17249) - http://www.bohemiancoding.com/sketch -->
    <title>cheers</title>
    <desc>Created with Sketch.</desc>
    <defs></defs>
    <g id="Page-1" stroke="none" stroke-width="1" fill="none" fill-rule="evenodd" sketch:type="MSPage">
        <g id="cheers" sketch:type="MSLayerGroup">
            <g id="Layer_1" sketch:type="MSShapeGroup">
                <g id="Group">
                    <path d="M30.2,6.4 C31.7,4.8 31.7,2.3 30.1,0.8 C29.6,0.3 28.9,6.66133815e-16 28.1,6.66133815e-16 C27,6.66133815e-16 25.9,0.6 25.3,1.1 C24.5,0.6 23.5,0 22.4,0 C21.6,0 20.9,0.3 20.4,0.8 C18.9,2.3 18.8,4.8 20.3,6.4 L24.5,10.7 C24.7,10.9 24.9,11 25.2,11 C25.5,11 25.7,10.9 25.9,10.7 L30.2,6.4 L30.2,6.4 Z M21.8,5 C21,4.2 21.1,3 21.8,2.2 C22,2.1 22.1,2 22.4,2 C23,2 23.8,2.4 24.6,3.1 C25,3.5 25.6,3.5 26,3.1 C26.6,2.4 27.5,2 28.1,2 C28.4,2 28.5,2.1 28.7,2.2 C29.5,3 29.5,4.2 28.7,5 L25.2,8.5 L21.8,5 L21.8,5 Z" id="Shape" fill="#FF2400"></path>
                    <path d="M49.6,60.7 C49.5,60.2 48.9,59.8 48.4,60 L45.6,60.7 L42,47.2 C42.7,46.8 43.3,46.2 43.8,45.3 C46.3,41 46.1,31.8 43.4,21.9 C42.4,18.7 41.5,16.8 40.5,14.7 C40.3,14.3 40.1,13.8 39.9,13.3 C39.7,12.9 39.2,12.6 38.7,12.7 L26.1,16.1 C25.6,16.2 25.3,16.7 25.4,17.2 C25.5,18 25.5,18.7 25.6,19.4 C25.7,21.2 25.8,22.9 26.6,26.3 C30.2,39.9 36,47.2 40,47.6 L43.7,61.3 L41,62 C40.5,62.1 40.2,62.7 40.3,63.2 C40.4,63.6 40.8,63.9 41.3,63.9 L41.6,63.9 L49,61.9 C49.5,61.8 49.8,61.3 49.6,60.7 L49.6,60.7 Z M38.4,14.9 C38.5,15.1 38.6,15.3 38.7,15.5 C39.6,17.5 40.5,19.5 41.5,22.5 C41.7,23.1 41.8,23.7 42,24.4 C42,24.4 42,24.4 41.9,24.4 L28.4,25.3 C27.8,22.5 27.7,20.9 27.5,19.3 C27.5,18.8 27.4,18.4 27.4,17.9 L38.4,14.9 L38.4,14.9 Z M28.7,26.6 L42,25.6 C42.1,25.6 42.2,25.5 42.2,25.5 C44.3,34.7 43.7,41.6 42,44.4 C41.6,45.1 41.2,45.5 40.7,45.6 L40.4,45.6 C37.7,45.6 32.2,39 28.7,26.6 L28.7,26.6 Z" id="Shape" fill="#FF6464"></path>
                    <path d="M23.9,16.2 L11.3,12.8 C10.8,12.7 10.3,12.9 10.1,13.4 C9.9,13.9 9.7,14.3 9.5,14.8 C8.5,16.9 7.6,18.9 6.6,22.1 C3.9,32 3.8,41.2 6.2,45.4 C6.7,46.3 7.3,46.9 8,47.3 L4.4,60.9 L1.6,60 C1.1,59.9 0.5,60.2 0.4,60.7 C0.3,61.2 0.6,61.8 1.1,61.9 L8.5,63.9 L8.8,63.9 C9.2,63.9 9.6,63.6 9.8,63.2 C9.9,62.7 9.6,62.1 9.1,62 L6.3,61.3 L10,47.6 C14.1,47.2 19.9,39.9 23.5,26.4 C24.3,23 24.4,21.3 24.5,19.5 C24.5,18.8 24.6,18.1 24.7,17.3 C24.7,16.8 24.4,16.3 23.9,16.2 L23.9,16.2 Z M11.3,15.6 C11.4,15.4 11.5,15.2 11.6,15 L22.6,17.9 C22.6,18.4 22.5,18.9 22.5,19.3 C22.4,20.9 22.3,22.4 21.7,25.2 L8.2,24.3 C8.2,24.3 8.2,24.3 8.1,24.3 C8.2,23.7 8.4,23.1 8.6,22.5 C9.4,19.5 10.3,17.6 11.3,15.6 L11.3,15.6 Z M9.6,45.6 L9.3,45.6 C8.8,45.5 8.4,45 8,44.4 C6.3,41.5 5.8,34.7 7.8,25.5 C7.9,25.6 8,25.6 8,25.6 L21.2,26.7 C17.8,39 12.3,45.6 9.6,45.6 L9.6,45.6 Z" id="Shape" fill="#FF6464"></path>
                </g>
            </g>
        </g>
    </g>
</svg>