<?xml version="1.0" ?><!DOCTYPE svg  PUBLIC '-//W3C//DTD SVG 1.1//EN'  'http://www.w3.org/Graphics/SVG/1.1/DTD/svg11.dtd'><svg enable-background="new 0 0 64 64" id="Layer_1" version="1.1" viewBox="0 0 64 64" xml:space="preserve" xmlns="http://www.w3.org/2000/svg" xmlns:xlink="http://www.w3.org/1999/xlink"><g><g><path d="M60.2,28.7h-1.7c-0.5-3-2.1-5.8-4.4-7.9v-3.6c0-0.3-0.2-0.5-0.5-0.5H52v-16c0-0.6-0.4-1-1-1H38     c-0.6,0-1,0.4-1,1v16h-1.5c-0.3,0-0.5,0.2-0.5,0.5v3.3c-3,2.6-4.9,6.5-4.9,10.8S32,39.4,35,42.1v5.1c0,0.3,0.2,0.5,0.5,0.5H37v15     c0,0.6,0.4,1,1,1h3.5h6H51c0.6,0,1-0.4,1-1v-15h1.5c0.3,0,0.5-0.2,0.5-0.5v-5.4c2.3-2.1,3.9-5.1,4.4-8.1h1.7     c0.3,0,0.8-0.4,0.8-0.6v-3.5C61,29.3,60.5,28.7,60.2,28.7z M53,17.7v2.3c-0.3-0.2-0.7-0.5-1-0.7v-1.6H53z M50,18.2     c-0.6-0.3-1.3-0.5-2-0.7V1.7h2V18.2z M47,1.7v15.6c-0.9-0.2-1.7-0.3-2.6-0.3c-0.8,0-1.6,0.1-2.4,0.2V1.7H47z M39,1.7h2v15.7     c-0.7,0.2-1.4,0.4-2,0.6v-0.9V1.7z M37.1,19c-0.4,0.2-0.7,0.5-1.1,0.7v-2h1L37.1,19z M37,46.7h-1v-3.8c0.3,0.2,0.7,0.5,1,0.7     L37,46.7z M39,47.2v-2.7c0.6,0.3,1.3,0.5,2,0.6v16.5h-2V47.2z M44.4,45.6c0.9,0,1.8-0.1,2.6-0.3v16.4h-5V45.4     C42.8,45.5,43.5,45.6,44.4,45.6z M48,61.7V45.1c0.7-0.2,1.4-0.4,2-0.7v17.3H48z M52,43.3c0.3-0.2,0.7-0.5,1-0.7v4.1h-1V43.3z      M44.4,43.6c-6.8,0-12.3-5.5-12.3-12.3S37.6,19,44.4,19s12.3,5.5,12.3,12.3S51.1,43.6,44.4,43.6z M60,32.7h-1.4     c0-1,0.1-1.1,0.1-1.5c0-0.4,0-0.5-0.1-1.5H60V32.7z" fill="#4D4D4D"/><path d="M25.9,29.9l-1.3-0.7c-0.6-3.4-2.6-6.2-5.6-7.8v-2.1c0-0.3-0.2-0.5-0.5-0.5H17v-18c0-0.6-0.4-1-1-1h-6     c-0.6,0-1,0.4-1,1v18H7.5c-0.3,0-0.5,0.2-0.5,0.5v3.2c-2.5,2-4.2,5.1-4.2,8.6s1.6,6.6,4.2,8.6v3.5c0,0.3,0.2,0.5,0.5,0.5H9v19     c0,0.6,0.4,1,1,1h6c0.6,0,1-0.4,1-1v-19h1.5c0.3,0,0.5-0.2,0.5-0.5v-2.4c2.9-1.6,5.1-4.4,5.7-7.8l1.2-0.7     c0.2-0.1,0.1-0.3,0.1-0.4v-1.5C26,30.1,26.1,29.9,25.9,29.9z M18,19.7v1.2c-0.3-0.1-0.7-0.3-1-0.4v-0.8H18z M15,1.7v18.4     c-0.4,0-0.8-0.1-1.2-0.1c-1,0-1.9,0.1-2.8,0.4V1.7H15z M8,19.7h1v1.5c-0.3,0.2-0.7,0.4-1,0.6V19.7z M8,42.7v-2.3     c0.3,0.2,0.7,0.4,1,0.6v1.8H8z M11,61.7v-20c0.9,0.2,1.9,0.4,2.8,0.4c0.4,0,0.8,0,1.2-0.1v19.7H11z M18,42.7h-1v-1v-0.1     c0.3-0.1,0.7-0.2,1-0.4V42.7z M13.8,40c-5,0-9-4-9-9s4-9,9-9s9,4,9,9S18.8,40,13.8,40z M25.4,31.5l-0.6,0.3c0-0.2,0-0.5,0-0.7     s0-0.5,0-0.7l0.6,0.3V31.5z" fill="#4D4D4D"/><path d="M50.8,27.2l-6.4,4.5l-4.1-3.5c-0.2-0.2-0.5-0.2-0.7,0.1c-0.2,0.2-0.2,0.5,0.1,0.7l4.4,3.7     c0.1,0.1,0.2,0.1,0.3,0.1c0.1,0,0.2,0,0.3-0.1l6.7-4.7c0.2-0.2,0.3-0.5,0.1-0.7C51.3,27,51,27,50.8,27.2z" fill="#4D4D4D"/><path d="M18.3,28.6l-4.4,3.1l-2.8-2.4c-0.2-0.2-0.5-0.2-0.7,0.1c-0.2,0.2-0.2,0.5,0.1,0.7l3.1,2.6     c0.1,0.1,0.2,0.1,0.3,0.1c0.1,0,0.2,0,0.3-0.1l4.7-3.3c0.2-0.2,0.3-0.5,0.1-0.7C18.8,28.5,18.5,28.4,18.3,28.6z" fill="#4D4D4D"/></g></g></svg>