<?xml version="1.0" encoding="UTF-8" standalone="no"?>
<svg width="64px" height="64px" viewBox="0 0 64 64" version="1.1" xmlns="http://www.w3.org/2000/svg" xmlns:xlink="http://www.w3.org/1999/xlink" xmlns:sketch="http://www.bohemiancoding.com/sketch/ns">
    <!-- Generator: Sketch 3.4.4 (17249) - http://www.bohemiancoding.com/sketch -->
    <title>engagement</title>
    <desc>Created with Sketch.</desc>
    <defs></defs>
    <g id="Page-1" stroke="none" stroke-width="1" fill="none" fill-rule="evenodd" sketch:type="MSPage">
        <g id="engagement" sketch:type="MSLayerGroup" fill="#FF6464">
            <g id="Layer_1" sketch:type="MSShapeGroup">
                <path d="M58.8,10.4 C53.2,3.7 43.4,1.3 34.7,4.4 L34.3,3.2 C33.9,2.2 33.3,1.5 32.6,1.3 C32.3,1.2 31.6,1.2 31,1.7 L30.7,2 C30.7,2 30.7,2.1 30.6,2.1 L30.8,1.2 L30.8,1.2 L30.8,1.1 C30.8,1.1 30.8,1.1 30.8,1 C30.8,0.9 30.8,0.9 30.7,0.8 L30.7,0.8 L30.7,0.8 C30.7,0.7 30.6,0.7 30.5,0.7 C30.5,0.7 30.5,0.7 30.4,0.7 L30.3,0.7 L30.3,0.7 L26.7,0.6 C26.6,0.6 26.5,0.6 26.4,0.7 L22,4.3 C21.9,4.4 21.9,4.5 21.8,4.6 L21.1,8.2 C21.1,8.3 21.1,8.5 21.2,8.6 C21.3,8.7 21.4,8.7 21.6,8.7 L21.6,8.7 L22.8,8.7 C22.7,8.8 22.6,8.8 22.5,8.9 L22.2,9.2 C21.5,9.8 21.5,10.4 21.5,10.7 C21.6,11.4 22.1,12.1 23.1,12.7 L24.2,13.3 C22.8,15.7 21.9,18.5 21.5,21.3 L21.5,21.4 C16.5,21.4 11.7,23.1 7.9,26.4 C-1.1,34 -2.3,47.4 5.3,56.4 C9.5,61.4 15.6,64 21.6,64 C26.4,64 31.3,62.4 35.3,59 C39.3,55.6 41.9,50.9 42.7,45.8 L42.7,45.7 C47.1,45.7 51.4,44.3 55.1,41.6 C60,38 63,32.8 63.8,26.8 C64.4,20.9 62.6,14.9 58.8,10.4 L58.8,10.4 Z M30.2,6.7 L29.6,7.2 L30,5.2 L30.2,6.7 L30.2,6.7 Z M27.9,3.7 L29.6,2.4 L28.8,6.4 L27.9,3.7 L27.9,3.7 Z M28,7 L25.5,5.6 L27.1,4.3 L28,7 L28,7 Z M24.9,4.8 L25,3.5 L26.4,3.7 L24.9,4.8 L24.9,4.8 Z M24.6,6.4 L27.1,7.8 L22.9,7.8 L24.6,6.4 L24.6,6.4 Z M26.9,1.5 L29,1.5 L27.5,2.7 L27.4,2.7 L25.7,2.5 L26.9,1.5 L26.9,1.5 Z M23.9,4 L23.8,5.7 L23.8,5.7 L22.3,6.9 L22.8,5 L23.9,4 L23.9,4 Z M27.8,8.7 L27.2,9.2 L25.5,8.7 L27.8,8.7 L27.8,8.7 Z M33.9,57.5 C25.7,64.3 13.5,63.3 6.7,55.1 C3.4,51.1 1.8,46.1 2.3,41 C2.7,35.9 5.2,31.2 9.1,27.9 C12.8,24.8 17.6,23.2 22.4,23.4 C27.8,23.6 32.9,26.2 36.3,30.3 C38.5,32.9 39.9,36 40.5,39.3 C39.7,39.2 39,39.1 38.2,38.9 C37.6,36.3 36.4,33.8 34.6,31.8 C32.5,29.3 29.7,27.5 26.6,26.5 C25.2,26.1 23.7,25.8 22.3,25.8 L22.3,25.8 L22.3,25.7 L22.3,25.7 C18,25.5 13.9,26.9 10.6,29.7 C3.3,35.8 2.4,46.6 8.5,53.9 C11.9,57.9 16.8,60 21.7,60 C25.6,60 29.5,58.7 32.7,56 C35.9,53.3 38,49.6 38.6,45.5 C39.3,45.6 40,45.7 40.7,45.8 C39.9,50.2 37.5,54.5 33.9,57.5 L33.9,57.5 Z M42.5,39.4 C41.9,35.6 40.3,32 37.8,29 C35,25.7 31.3,23.4 27.3,22.2 L27.3,22.1 C27.8,18.4 29.7,15 32.6,12.6 C35.7,10 39.6,8.8 43.7,9.1 C47.7,9.5 51.4,11.4 54,14.5 C56.6,17.6 57.8,21.5 57.5,25.6 C57.1,29.6 55.2,33.3 52.1,35.9 C49.4,38.1 46,39.3 42.5,39.4 L42.5,39.4 Z M35.9,37.9 C33.9,37 32.2,35.6 30.7,33.9 C29.5,32.4 28.5,30.7 27.9,28.9 C29.9,29.8 31.7,31.2 33.1,32.9 C34.4,34.4 35.3,36.1 35.9,37.9 L35.9,37.9 Z M21.4,27.5 C22,31.9 23.8,35.9 26.8,39 C29.5,41.9 32.9,43.8 36.5,44.8 C36.5,44.8 36.5,44.8 36.5,44.9 C36,48.6 34.1,51.9 31.2,54.3 C24.8,59.7 15.2,58.8 9.8,52.4 C4.4,46 5.3,36.4 11.7,31 C14.5,28.8 17.8,27.6 21.4,27.5 L21.4,27.5 Z M61.7,26.5 C61,31.9 58.3,36.7 53.8,39.9 C46,45.7 35,44.7 28.3,37.7 C25.7,35 24,31.5 23.4,27.7 C24.1,27.8 24.9,27.9 25.6,28.2 C26.2,30.8 27.4,33.3 29.2,35.3 C31.3,37.8 34,39.6 37.1,40.6 L37.2,40.6 C38.4,41 39.6,41.2 40.9,41.3 L41.8,41.3 L41.9,41.3 L41.9,41.3 L42.5,41.3 C46.5,41.3 50.4,39.9 53.5,37.3 C57,34.4 59.2,30.2 59.6,25.6 C60,21 58.6,16.6 55.6,13.1 C52.7,9.6 48.5,7.4 43.9,7 C39.3,6.6 34.9,8 31.4,11 C28.2,13.7 26.1,17.5 25.4,21.7 C24.8,21.6 24.1,21.5 23.5,21.4 C23.9,18.5 24.9,15.8 26.5,13.3 C26.6,13.1 26.7,12.8 26.6,12.5 C26.5,12.2 26.3,12.1 26,12 L24.1,10.9 C23.9,10.8 23.7,10.7 23.6,10.6 L23.8,10.5 C23.9,10.4 24.1,10.4 24.3,10.5 C24.4,10.5 24.4,10.6 24.5,10.6 L27.1,11.4 C27.4,11.5 27.8,11.4 28,11.2 L31.9,7.9 C32.2,7.7 32.3,7.3 32.2,7 L31.9,4.3 C31.9,4.2 31.9,4.1 31.8,4.1 C31.7,3.9 31.8,3.7 31.9,3.6 L32.1,3.5 C32.2,3.6 32.3,3.8 32.3,4 L33.2,6 C33.3,6.3 33.5,6.5 33.7,6.6 C33.9,6.7 34.2,6.7 34.5,6.6 C42.6,3.3 52,5.4 57.3,11.7 C60.8,15.8 62.3,21.1 61.7,26.5 L61.7,26.5 Z" id="Shape"></path>
            </g>
        </g>
    </g>
</svg>