<?xml version="1.0" encoding="UTF-8" standalone="no"?>
<svg width="65px" height="59px" viewBox="0 0 65 59" version="1.1" xmlns="http://www.w3.org/2000/svg" xmlns:xlink="http://www.w3.org/1999/xlink" xmlns:sketch="http://www.bohemiancoding.com/sketch/ns">
    <!-- Generator: Sketch 3.4.4 (17249) - http://www.bohemiancoding.com/sketch -->
    <title>loveletter</title>
    <desc>Created with Sketch.</desc>
    <defs></defs>
    <g id="Page-1" stroke="none" stroke-width="1" fill="none" fill-rule="evenodd" sketch:type="MSPage">
        <g id="loveletter" sketch:type="MSLayerGroup">
            <g id="Layer_1" sketch:type="MSShapeGroup">
                <g id="Group">
                    <path d="M19.1,18.3 C18.8,18.3 18.6,18.5 18.6,18.8 C18.6,19.1 18.8,19.3 19.1,19.3 L33.1,19.3 C33.4,19.3 33.6,19.1 33.6,18.8 C33.6,18.5 33.4,18.3 33.1,18.3 L19.1,18.3 L19.1,18.3 Z" id="Shape" fill="#FF6464"></path>
                    <path d="M16.1,16.3 L36.1,16.3 C36.4,16.3 36.6,16.1 36.6,15.8 C36.6,15.5 36.4,15.3 36.1,15.3 L16.1,15.3 C15.8,15.3 15.6,15.5 15.6,15.8 C15.6,16.1 15.9,16.3 16.1,16.3 L16.1,16.3 Z" id="Shape" fill="#FF6464"></path>
                    <path d="M27.2,44.9 C26.5,44.9 25.9,45.2 25.5,45.5 C25.1,45.2 24.5,44.9 23.8,44.9 C23.4,44.9 23,45 22.7,45.3 C22.3,45.7 22,46.2 22,46.8 C22,47.4 22.2,47.9 22.7,48.3 L25.2,50.6 C25.3,50.7 25.4,50.7 25.5,50.7 C25.6,50.7 25.7,50.7 25.8,50.6 L28.3,48.3 C28.7,47.9 29,47.3 29,46.8 C29,46.3 28.7,45.7 28.3,45.3 C28,45 27.7,44.9 27.2,44.9 L27.2,44.9 Z M27.7,47.6 L25.5,49.6 L23.3,47.6 C23.1,47.4 23,47.1 23,46.8 C23,46.5 23.1,46.2 23.4,46 C23.5,45.9 23.7,45.8 23.8,45.8 C24.2,45.8 24.7,46 25.2,46.4 C25.4,46.6 25.7,46.6 25.9,46.4 C26.6,45.8 27.4,45.6 27.7,45.9 C27.9,46.1 28.1,46.4 28.1,46.7 C28,47.1 27.9,47.4 27.7,47.6 L27.7,47.6 Z" id="Shape" fill="#FF2400"></path>
                    <path d="M19.1,24.3 C18.8,24.3 18.6,24.5 18.6,24.8 C18.6,25.1 18.8,25.3 19.1,25.3 L33.1,25.3 C33.4,25.3 33.6,25.1 33.6,24.8 C33.6,24.5 33.4,24.3 33.1,24.3 L19.1,24.3 L19.1,24.3 Z" id="Shape" fill="#FF6464"></path>
                    <path d="M16.1,22.3 L36.1,22.3 C36.4,22.3 36.6,22.1 36.6,21.8 C36.6,21.5 36.4,21.3 36.1,21.3 L16.1,21.3 C15.8,21.3 15.6,21.5 15.6,21.8 C15.6,22.1 15.9,22.3 16.1,22.3 L16.1,22.3 Z" id="Shape" fill="#FF6464"></path>
                    <path d="M19.1,32.3 C18.8,32.3 18.6,32.5 18.6,32.8 C18.6,33.1 18.8,33.3 19.1,33.3 L33.1,33.3 C33.4,33.3 33.6,33.1 33.6,32.8 C33.6,32.5 33.4,32.3 33.1,32.3 L19.1,32.3 L19.1,32.3 Z" id="Shape" fill="#FF6464"></path>
                    <path d="M16.1,30.3 L36.1,30.3 C36.4,30.3 36.6,30.1 36.6,29.8 C36.6,29.5 36.4,29.3 36.1,29.3 L16.1,29.3 C15.8,29.3 15.6,29.5 15.6,29.8 C15.6,30.1 15.9,30.3 16.1,30.3 L16.1,30.3 Z" id="Shape" fill="#FF6464"></path>
                    <path d="M33.6,38.8 C33.6,38.5 33.4,38.3 33.1,38.3 L19.1,38.3 C18.8,38.3 18.6,38.5 18.6,38.8 C18.6,39.1 18.8,39.3 19.1,39.3 L33.1,39.3 C33.4,39.3 33.6,39.1 33.6,38.8 L33.6,38.8 Z" id="Shape" fill="#FF6464"></path>
                    <path d="M36.6,35.8 C36.6,35.5 36.4,35.3 36.1,35.3 L16.1,35.3 C15.8,35.3 15.6,35.5 15.6,35.8 C15.6,36.1 15.8,36.3 16.1,36.3 L36.1,36.3 C36.4,36.3 36.6,36.1 36.6,35.8 L36.6,35.8 Z" id="Shape" fill="#FF6464"></path>
                    <path d="M50,26.7 L50,26.7 L57.5,26.3 C57.8,26.3 58.1,26.1 58.3,25.8 L59.1,24.5 L59.1,24.4 L63.9,17.8 C64.1,17.5 64.2,17.1 64,16.8 C63.8,16.5 63.5,16.3 63.1,16.2 L61,16.1 L58.5,12.1 C58.3,11.8 58,11.6 57.6,11.6 L52.2,11.8 L51.4,10.5 C51.2,10.2 50.9,10 50.5,10 C50.1,10 49.8,10.3 49.6,10.6 L45.9,19.1 C45.8,19.4 45.8,19.7 45.9,20 L48.4,24.9 C48.3,25 48.3,25 48.2,25.1 L45.4,29.8 L45.4,8.3 L48,8.3 C48.6,8.3 49,7.9 49,7.3 L49,4.7 C49,2.6 46.6,0.3 44.4,0.3 L8.1,0.3 L8,0.3 C5.9,0.6 4.1,3.4 4.1,5.2 L4.1,5.3 L4.1,49.3 L1.1,49.3 C0.5,49.3 0.1,49.7 0.1,50.3 L0.1,54.6 C0.1,56.7 1.8,58.3 3.9,58.3 L5.1,58.3 L36.1,58.3 L40.1,58.3 L42.1,58.3 C44.2,58.3 45.5,56.2 45.5,54.3 L45.5,35.4 L52.4,37.5 L52.7,37.5 C52.8,37.5 53,37.5 53.1,37.4 L58.7,34.7 C59.1,34.5 59.3,34.1 59.3,33.7 C59.3,33.3 59,33 58.6,32.8 L50.9,30.4 C50.7,30.3 50.4,30.3 50.2,30.5 L46.4,32.3 L49.7,26.6 C49.8,26.7 49.9,26.7 50,26.7 L50,26.7 Z M44.5,2.3 C45.6,2.3 47.1,3.8 47.1,4.7 L47.1,6.3 L44.5,6.3 L44.5,6.3 L13.1,6.3 L13.1,4.7 C13.1,3.9 12.7,3.1 12,2.3 L44.5,2.3 L44.5,2.3 Z M2.1,54.6 L2.1,51.3 L4.1,51.3 L4.1,56.3 L4,56.3 C3,56.3 2.1,55.5 2.1,54.6 L2.1,54.6 Z M42.1,56.3 L40.1,56.3 L36.1,56.3 L6.1,56.3 L6.1,5.3 L6.1,5.2 C6.1,4.2 7.4,2.3 8.3,2.3 L8.3,2.3 C9.4,2.3 11.1,3.9 11.1,4.7 L11.1,7.3 C11.1,7.9 11.5,8.3 12.1,8.3 L43.5,8.3 L43.5,33.2 L31.7,53.7 C31.4,54.2 31.6,54.8 32.1,55.1 C32.3,55.2 32.4,55.2 32.6,55.2 C32.9,55.2 33.3,55 33.5,54.7 L43.6,37.3 L43.6,54.3 C43.5,55.2 43,56.3 42.1,56.3 L42.1,56.3 Z M50.7,32.5 L55.6,34 L52.6,35.4 L47.7,33.9 L50.7,32.5 L50.7,32.5 Z M58.3,22.1 L55.8,17.9 L61.2,18.1 L58.3,22.1 L58.3,22.1 Z M54.6,16 L54.2,15.4 L55.6,15.4 L56.1,16 L54.9,16 C54.9,15.9 54.8,15.9 54.6,16 L54.6,16 Z M57.1,13.6 L58.6,16 L57.5,16 L56.2,14.4 L53.7,14.4 L53.3,13.8 L57.1,13.6 L57.1,13.6 Z M50.7,13.2 L57,23.9 L56.7,24.4 L50.7,24.7 L48,19.5 L50.7,13.2 L50.7,13.2 Z" id="Shape" fill="#FF6464"></path>
                </g>
            </g>
        </g>
    </g>
</svg>