<?xml version="1.0" ?><!DOCTYPE svg  PUBLIC '-//W3C//DTD SVG 1.1//EN'  'http://www.w3.org/Graphics/SVG/1.1/DTD/svg11.dtd'><svg enable-background="new 0 0 64 64" id="Layer_1" version="1.1" viewBox="0 0 64 64" xml:space="preserve" xmlns="http://www.w3.org/2000/svg" xmlns:xlink="http://www.w3.org/1999/xlink"><g><path d="M53.7,14.5c-0.3-0.2-0.7-0.3-1.1-0.1L52,14.7c-0.1-0.3-0.2-0.5-0.4-0.7l-0.2-0.2l0.8-7.7    c0-0.4-0.1-0.8-0.5-1c-0.3-0.2-0.7-0.2-1.1,0l-1.7,1c0,0,0,0-0.1-0.1l-4.4-2.8c-0.3-0.2-0.7-0.2-1,0L39.1,6l-0.6-0.4l0.4-2.7    c0.1-0.4-0.1-0.7-0.4-1s-0.7-0.2-1-0.1l-2.5,1.3c-0.1-0.1-0.2-0.2-0.3-0.3l-4.4-2.8c-0.3-0.2-0.7-0.2-1,0l-4.7,2.7l-1.2-0.8    c-0.3-0.2-0.7-0.2-1.1,0c-0.3,0.2-0.5,0.6-0.5,1L22,6.4l-1.3-0.8c-0.3-0.2-0.7-0.2-1,0l-5,2.8c0,0,0,0,0,0l-1.4-0.9    c-0.3-0.2-0.7-0.2-1.1,0c-0.3,0.2-0.5,0.6-0.5,1l0.7,6.7l-0.9-0.6c-0.3-0.2-0.8-0.2-1.1,0c-0.3,0.2-0.5,0.6-0.4,1l5.1,22.8    c0.1,0.2,0.2,0.4,0.4,0.6l15.1,11.4l-2.6-1.1C27.5,49,27.2,49,26.9,49c-1.3,0-2.4,1.1-2.4,2.4c0,1.3,1.1,2.4,2.4,2.4    c0.3,0,0.5,0,0.8-0.1l2.9-0.9l-4.1,2.9c-0.3,0.2-0.4,0.5-0.4,0.8V63c0,0.3,0.2,0.7,0.5,0.8c0.2,0.1,0.3,0.2,0.5,0.2    c0.1,0,0.3,0,0.4-0.1l5.3-2.5l5.9,2.5c0.3,0.1,0.7,0.1,0.9-0.1c0.3-0.2,0.5-0.5,0.5-0.8v-6.4c0-0.3-0.1-0.6-0.4-0.8l-3.2-2.4    l0.7,0.2c0.2,0.1,0.5,0.1,0.8,0.1c1.3,0,2.4-1.1,2.4-2.4c0-1.3-1.1-2.4-2.4-2.4c-0.3,0-0.6,0.1-0.9,0.2L35,50l8.9-6    c0.4-0.3,0.6-0.9,0.3-1.3l0,0l4.7-3.8c0.2-0.1,0.3-0.3,0.4-0.6L54,15.5C54.1,15.1,54,14.7,53.7,14.5z M43.7,18.7l0.7-6.9l5.5,3.6    l0,0.3L43.7,18.7z M19.8,20.1L19.7,18l10.9,7.1L28.6,26L19.8,20.1z M18.2,10.7l1.5-0.8l1,0.6l-1.5,0.8L18.2,10.7z M25.7,10.1    l-0.3,3.1c-0.2,0-0.4,0-0.6,0.1l-1.4,0.8l-2.3-1.5L25.7,10.1z M25.2,15.4l3.2,2l0,0l-0.8,0.5l-1.9-1.3L23.4,18l-1.2-0.8L25.2,15.4    z M35.1,11.6C35.1,11.6,35.1,11.6,35.1,11.6l1.1-0.6l3.1,2l-0.8,0.5l-2-1.4L34,13.3l-0.9-0.5L35.1,11.6z M35.1,14.1l1.4-0.8    l1.1,0.8l-1.5,0.8L35.1,14.1z M42.2,13.5l-0.5,5.1L38,16.1L42.2,13.5z M44.1,9.3l-1-0.7L44.4,8l0.9,0.6L44.1,9.3z M42.8,10.8    C42.8,10.8,42.8,10.8,42.8,10.8l-1.6,1c0,0,0,0-0.1-0.1l-2.1-1.3l-0.3-2.2L42.8,10.8z M30.7,22.7l-3.4-2.2l2.4-1.5    c0.1,0,0.2-0.1,0.2-0.1l1.3-0.9L30.7,22.7z M24.3,18.6l1.4-0.8l1,0.7l-1.3,0.8L24.3,18.6z M32.6,24C32.6,24,32.6,24,32.6,24l0.8-8    c0-0.4-0.1-0.8-0.5-1s-0.7-0.2-1.1,0l-1,0.6l-0.2-2.2l9.8,6.6L32.6,24z M49.4,12.7L46,10.5L49.9,8L49.4,12.7z M43.9,5.5l3.1,2    L46.2,8l-1.8-1.2L42.2,8l-1.2-0.8L43.9,5.5z M35.9,8.9c-0.1,0-0.1,0-0.2,0.1l-1.1,0.6l-3.5-2.3l5.3-2.7L35.9,8.9z M29.3,6    l-0.7-0.5l1-0.5l0.8,0.5L29.3,6z M29.6,2.2l3.2,2L31.4,5l-1.7-1.1l-2,1.1l-1.3-0.8L29.6,2.2z M23.9,4.9l8.9,5.8l-1.5,0.9l-1.2-0.8    c-0.3-0.2-0.7-0.2-1.1,0c-0.3,0.2-0.5,0.6-0.5,0.9l0.3,3.6l-1.6-1l0.6-5.9c0-0.4-0.1-0.7-0.4-0.9c-0.3-0.2-0.7-0.2-1,0l-1.3,0.7    l-0.9-0.5L23.9,4.9z M20.2,7.6L23,9.3L21.7,10l-1.9-1.3l-2.5,1.4l-0.7-0.5L20.2,7.6z M13.9,10.3l7.5,5L20.2,16l-1.1-0.7    c-0.3-0.2-0.7-0.2-1.1,0s-0.5,0.6-0.5,0.9l0.2,2.5l-3.1-2.1L13.9,10.3z M27.3,52.7c-0.1,0-0.3,0.1-0.4,0.1c-0.8,0-1.4-0.6-1.4-1.4    c0-0.8,0.6-1.4,1.4-1.4c0.2,0,0.4,0,0.6,0.1l3.4,1.5L27.3,52.7z M38,61.5l-4.9-2.1c-0.1-0.1-0.3-0.1-0.4-0.1c-0.1,0-0.3,0-0.4,0.1    l-4.3,2V57l2.9-2.1l-1,2.5c-0.1,0.3,0,0.5,0.3,0.6c0.1,0,0.1,0,0.2,0c0.2,0,0.4-0.1,0.5-0.3l1.5-3.9l0.1-0.1l1.5,4    c0.1,0.2,0.3,0.3,0.5,0.3c0.1,0,0.1,0,0.2,0c0.3-0.1,0.4-0.4,0.3-0.6l-1.4-3.6l4.5,3.3V61.5z M37.3,50.1c0.9-0.4,2,0.3,2,1.3    c0,0.9-1,1.6-1.9,1.3l-3.5-1.2L37.3,50.1z M32.5,49.3L16.9,37.5l-4.4-20l24.2,16.3l5.4,9.1L32.5,49.3z M47.4,37.5l-4.2,3.4    l-4.9-8.3c-0.1-0.1-0.2-0.2-0.3-0.3l-7.4-5l21.1-10.2L47.4,37.5z" fill="#4D4D4D"/></g></svg>