<?xml version="1.0" ?><!DOCTYPE svg  PUBLIC '-//W3C//DTD SVG 1.1//EN'  'http://www.w3.org/Graphics/SVG/1.1/DTD/svg11.dtd'><svg enable-background="new 0 0 153 153" height="153px" id="Layer_1" version="1.1" viewBox="0 0 153 153" width="153px" xml:space="preserve" xmlns="http://www.w3.org/2000/svg" xmlns:xlink="http://www.w3.org/1999/xlink"><g><path d="M152.5,122.1c0,16.789-13.611,30.4-30.4,30.4H30.9c-16.789,0-30.4-13.611-30.4-30.4V30.898   C0.5,14.109,14.111,0.5,30.9,0.5h91.2c16.789,0,30.4,13.609,30.4,30.398V122.1z" fill="#60C2A5"/><path d="M126.607,78.09C113.5,12.257,39.796,12.192,26.57,77.896c-4.009,4.308-6.704,12.343-6.704,21.546   c0,13.748,6.016,24.893,13.438,24.893c7.42,0,13.436-11.145,13.436-24.893c0-11.583-4.27-21.316-10.054-24.096   c13.592-46.037,66.129-46.057,79.752-0.057c-5.846,2.699-10.176,12.488-10.176,24.152c0,13.748,6.016,24.893,13.436,24.893   c7.422,0,13.438-11.145,13.438-24.893C133.135,90.375,130.518,82.441,126.607,78.09z" fill="#FFFFFF"/></g></svg>