<?xml version="1.0" encoding="UTF-8" standalone="no"?>
<svg width="20px" height="20px" viewBox="0 0 20 20" version="1.1" xmlns="http://www.w3.org/2000/svg" xmlns:xlink="http://www.w3.org/1999/xlink" xmlns:sketch="http://www.bohemiancoding.com/sketch/ns">
    <!-- Generator: Sketch 3.4.4 (17249) - http://www.bohemiancoding.com/sketch -->
    <title>glass-cocktail-2</title>
    <desc>Created with Sketch.</desc>
    <defs></defs>
    <g id="Page-1" stroke="none" stroke-width="1" fill="none" fill-rule="evenodd" sketch:type="MSPage">
        <g id="glass-cocktail-2" sketch:type="MSLayerGroup" transform="translate(-2.000000, -2.000000)">
            <g id="Frames-24px" sketch:type="MSShapeGroup">
                <rect id="Rectangle-path" x="0" y="0" width="24.001" height="24.001"></rect>
            </g>
            <g id="Outline" transform="translate(2.000000, 1.000000)" sketch:type="MSShapeGroup">
                <path d="M16,0.999 C13.794,0.999 12,2.794 12,4.999 L6.414,4.999 L3.414,1.999 L-1.38506828e-17,1.999 L-1.38506828e-17,3.999 L2.586,3.999 L3.586,4.999 L1,4.999 C0.596,4.999 0.231,5.243 0.076,5.616 C-0.079,5.99 0.007,6.42 0.293,6.706 L7,13.414 L7,19 L4,19 L4,21 L12,21 L12,19 L9,19 L9,13.414 L13.98,8.433 C14.576,8.785 15.26,9 16,9 C18.206,9 20,7.205 20,4.999 C20,2.794 18.206,0.999 16,0.999 L16,0.999 Z" id="Path" fill="#AD64C5"></path>
                <path d="M12.556,6.999 L8,11.586 L3.414,6.999 L12.556,6.999 L12.556,6.999 Z" id="Path" fill="#FF7043"></path>
                <path d="M16,7 C15.822,7 15.652,6.97 15.488,6.926 L15.707,6.706 C15.993,6.42 16.079,5.99 15.924,5.616 C15.769,5.243 15.404,4.999 15,4.999 L14,4.999 C14,3.895 14.897,2.999 16,2.999 C17.103,2.999 18,3.895 18,4.999 C18,6.103 17.103,7 16,7 L16,7 Z" id="Path" fill="#F8E81C"></path>
            </g>
        </g>
    </g>
</svg>