<?xml version="1.0" ?><!DOCTYPE svg  PUBLIC '-//W3C//DTD SVG 1.1//EN'  'http://www.w3.org/Graphics/SVG/1.1/DTD/svg11.dtd'><svg enable-background="new 0 0 65 65" height="65px" version="1.1" viewBox="0 0 65 65" width="65px" xml:space="preserve" xmlns="http://www.w3.org/2000/svg" xmlns:xlink="http://www.w3.org/1999/xlink"><g id="Layer_2"><g><path d="M45,4H24.281c-0.469,0-0.875,0.325-0.976,0.783L22.047,6.08c0.228,0.035,1.072,0.389,1.282,0.474    c0.442,0.124,0.852,0.303,1.232,0.53L24.802,6H45c0.551,0,1,0.448,1,1v52c0,0.552-0.449,1-1,1H11c-0.551,0-1-0.448-1-1V21.677    l0.509-0.204c-0.208-0.385-0.379-0.803-0.497-1.263c-0.054-0.211-0.104-0.421-0.153-0.631l-1.231,0.492    C8.249,20.224,8,20.591,8,21v38c0,1.654,1.346,3,3,3h34c1.654,0,3-1.346,3-3V7C48,5.346,46.654,4,45,4z" fill="#FFBE06"/></g><g><path d="M55,29h-1c-1.654,0-3-1.346-3-3V12c0-1.654,1.346-3,3-3h1c1.654,0,3,1.346,3,3v14    C58,27.654,56.654,29,55,29z M54,11c-0.551,0-1,0.448-1,1v14c0,0.552,0.449,1,1,1h1c0.551,0,1-0.448,1-1V12c0-0.552-0.449-1-1-1    H54z" fill="#00A651"/></g><path d="M58.458,32c-0.552,0-1-0.447-1-1s0.448-1,1-1C58.621,30,59,30,59,29V15c0-0.552-0.449-1-1-1h-1   c-0.552,0-1-0.447-1-1s0.448-1,1-1h1c1.654,0,3,1.346,3,3v14C61,30.822,60.002,32,58.458,32z" fill="#00A651"/><g><path d="M56,53.5c0,0.828-0.671,1.5-1.5,1.5l0,0c-0.829,0-1.5-0.672-1.5-1.5v-24c0-0.828,0.671-1.5,1.5-1.5l0,0    c0.829,0,1.5,0.672,1.5,1.5V53.5z" fill="#FFFFFF"/><path d="M54.5,56c-1.378,0-2.5-1.121-2.5-2.5v-24c0-1.379,1.122-2.5,2.5-2.5s2.5,1.121,2.5,2.5v24    C57,54.879,55.878,56,54.5,56z" fill="#00A651"/></g><g><polygon fill="#FFFFFF" points="54.5,58 53,55 56,55   "/><path d="M54.5,59c-0.379,0-0.725-0.214-0.895-0.553l-1.5-3c-0.155-0.31-0.138-0.678,0.044-0.973S52.653,54,53,54h3    c0.347,0,0.668,0.18,0.851,0.475s0.199,0.663,0.044,0.973l-1.5,3C55.225,58.786,54.879,59,54.5,59z" fill="#00A651"/></g><g><path d="M19.333,22H9c-0.401,0-0.764-0.24-0.921-0.609c-0.156-0.37-0.077-0.798,0.202-1.086l15-15.5    c0.284-0.293,0.717-0.387,1.094-0.231C24.753,4.726,25,5.093,25,5.5v9.596C25,17.509,25,22,19.333,22z M11.359,20h7.974    C22.491,20,23,18.555,23,15.096V7.972L11.359,20z" fill="#FFBE06"/></g><path d="M43,20H29c-0.552,0-1-0.447-1-1s0.448-1,1-1h14c0.552,0,1,0.447,1,1S43.552,20,43,20z" fill="#92278F"/><path d="M43,27H16c-0.552,0-1-0.447-1-1s0.448-1,1-1h27c0.552,0,1,0.447,1,1S43.552,27,43,27z" fill="#92278F"/><path d="M43,34H15c-0.552,0-1-0.447-1-1s0.448-1,1-1h28c0.552,0,1,0.447,1,1S43.552,34,43,34z" fill="#92278F"/><path d="M43,41H15c-0.552,0-1-0.447-1-1s0.448-1,1-1h28c0.552,0,1,0.447,1,1S43.552,41,43,41z" fill="#92278F"/><path d="M30,48H15c-0.552,0-1-0.447-1-1s0.448-1,1-1h15c0.552,0,1,0.447,1,1S30.552,48,30,48z" fill="#92278F"/><path d="M39.83,44.17L43,56l-11.83-3.17L39.83,44.17 M39.83,43.17c-0.262,0-0.517,0.103-0.707,0.293l-8.66,8.66   c-0.253,0.253-0.352,0.621-0.259,0.966c0.092,0.345,0.362,0.614,0.707,0.707l11.83,3.17C42.827,56.989,42.914,57,43,57   c0.262,0,0.517-0.103,0.707-0.293c0.253-0.253,0.352-0.621,0.259-0.966l-3.17-11.83c-0.092-0.345-0.362-0.614-0.707-0.707   C40.003,43.181,39.917,43.17,39.83,43.17L39.83,43.17z" fill="#92278F"/><path d="M38.561,48.943l0.964,3.601l-3.6-0.965L38.561,48.943 M39.079,47.012l-5.085,5.085l6.946,1.861   L39.079,47.012L39.079,47.012z" fill="#92278F"/></g><g id="Layer_3"/></svg>