<?xml version="1.0" ?><!DOCTYPE svg  PUBLIC '-//W3C//DTD SVG 1.1//EN'  'http://www.w3.org/Graphics/SVG/1.1/DTD/svg11.dtd'><svg enable-background="new 0 0 65 65" height="65px" version="1.1" viewBox="0 0 65 65" width="65px" xml:space="preserve" xmlns="http://www.w3.org/2000/svg" xmlns:xlink="http://www.w3.org/1999/xlink"><g id="Layer_2"><path d="M46,43H6.542C5.692,43,5,42.11,5,41.324V19.176C5,18.39,5.692,18,6.542,18h43.915   C51.308,18,52,18.39,52,19.176V32h1V19.176C53,17.838,51.859,17,50.458,17H6.542C5.141,17,4,17.838,4,19.176v22.148   C4,42.662,5.141,44,6.542,44H46V43z" fill="#92278F"/><path d="M46,51H5c-1.654,0-3-1.75-3-3.593V18.093C2,16.25,3.346,15,5,15h47c1.654,0,3,1.25,3,3.093V32h2V18.093   C57,15.146,54.757,13,52,13H5c-2.757,0-5,2.146-5,5.093v29.314C0,50.354,2.243,53,5,53h41V51z" fill="#92278F"/><path d="M65,60c0,2.762-2.239,5-5,5H50c-2.761,0-5-2.238-5-5V36c0-2.762,2.239-5,5-5h10c2.761,0,5,2.238,5,5V60z    M63,36c0-1.657-1.343-3-3-3H50c-1.657,0-3,1.343-3,3v24c0,1.657,1.343,3,3,3h10c1.657,0,3-1.343,3-3V36z" fill="#92278F"/><path d="M27.5,45.75c0.827,0,1.5,0.673,1.5,1.5s-0.673,1.5-1.5,1.5s-1.5-0.673-1.5-1.5S26.673,45.75,27.5,45.75    M27.5,44.75c-1.381,0-2.5,1.119-2.5,2.5s1.119,2.5,2.5,2.5s2.5-1.119,2.5-2.5S28.881,44.75,27.5,44.75L27.5,44.75z" fill="#92278F"/><path d="M55.5,57.75c0.828,0,1.5,0.672,1.5,1.5s-0.672,1.5-1.5,1.5s-1.5-0.672-1.5-1.5S54.672,57.75,55.5,57.75    M55.5,56.75c-1.378,0-2.5,1.121-2.5,2.5s1.122,2.5,2.5,2.5s2.5-1.121,2.5-2.5S56.878,56.75,55.5,56.75L55.5,56.75z" fill="#92278F"/><path d="M18,40c0,0.553-0.448,1-1,1h-6c-0.552,0-1-0.447-1-1v-7c0-0.553,0.448-1,1-1h6c0.552,0,1,0.447,1,1V40z    M12,39h4v-5h-4V39z" fill="#FFBE06"/><path d="M30,40c0,0.553-0.448,1-1,1h-6c-0.552,0-1-0.447-1-1V28c0-0.553,0.448-1,1-1h6c0.552,0,1,0.447,1,1V40z    M24,39h4V29h-4V39z" fill="#FFBE06"/><path d="M42,40c0,0.553-0.448,1-1,1h-6c-0.552,0-1-0.447-1-1V23c0-0.553,0.448-1,1-1h6c0.552,0,1,0.447,1,1V40z    M36,39h4V24h-4V39z" fill="#FFBE06"/><path d="M62,53.5c0,1.381-1.119,2.5-2.5,2.5h-9c-1.381,0-2.5-1.119-2.5-2.5v-16c0-1.381,1.119-2.5,2.5-2.5h9   c1.381,0,2.5,1.119,2.5,2.5V53.5z M61,37.5c0-0.828-0.671-1.5-1.5-1.5h-9c-0.829,0-1.5,0.672-1.5,1.5v16c0,0.828,0.671,1.5,1.5,1.5   h9c0.829,0,1.5-0.672,1.5-1.5V37.5z" fill="#92278F"/><g><path d="M54.602,49.954v-1.315c-0.927-0.041-1.827-0.29-2.353-0.595l0.415-1.619    c0.582,0.318,1.398,0.608,2.297,0.608c0.789,0,1.329-0.304,1.329-0.857c0-0.525-0.443-0.857-1.467-1.204    c-1.481-0.498-2.491-1.19-2.491-2.532c0-1.219,0.858-2.174,2.339-2.464V38.66h1.356v1.219c0.927,0.041,1.55,0.235,2.007,0.457    l-0.401,1.563c-0.36-0.152-0.997-0.471-1.993-0.471c-0.899,0-1.19,0.388-1.19,0.774c0,0.457,0.484,0.748,1.661,1.191    c1.647,0.58,2.311,1.342,2.311,2.588c0,1.231-0.872,2.283-2.463,2.561v1.411H54.602z" fill="#00A651"/></g><g><path d="M33,60c0,0.553-0.448,1-1,1h-9c-0.552,0-1-0.447-1-1v-8c0-0.553,0.448-1,1-1h9c0.552,0,1,0.447,1,1V60z     M24,59h7v-6h-7V59z" fill="#92278F"/></g><g><rect fill="#FFFFFF" height="0" width="21" x="17" y="60"/><path d="M38,61H17c-0.552,0-1-0.447-1-1s0.448-1,1-1h21c0.552,0,1,0.447,1,1S38.552,61,38,61z" fill="#92278F"/></g></g><g id="Layer_3"/></svg>