<?xml version="1.0" encoding="UTF-8" standalone="no"?>
<svg width="97px" height="97px" viewBox="0 0 97 97" version="1.1" xmlns="http://www.w3.org/2000/svg" xmlns:xlink="http://www.w3.org/1999/xlink" xmlns:sketch="http://www.bohemiancoding.com/sketch/ns">
    <!-- Generator: Sketch 3.4.4 (17249) - http://www.bohemiancoding.com/sketch -->
    <title>Untitled</title>
    <desc>Created with Sketch.</desc>
    <defs></defs>
    <g id="Page-1" stroke="none" stroke-width="1" fill="none" fill-rule="evenodd" sketch:type="MSPage">
        <g id="food-plate-knife-fork" sketch:type="MSLayerGroup">
            <g id="Group" sketch:type="MSShapeGroup">
                <g id="Frames-24px" transform="translate(1.000000, 0.000000)">
                    <rect id="Rectangle-path" x="0" y="0" width="96" height="96.004"></rect>
                </g>
                <g id="Outline" transform="translate(0.000000, 7.000000)">
                    <g id="Group">
                        <path d="M83.824,2.168 C82.676,1.024 80.96,0.68 79.464,1.3 C77.968,1.92 76.996,3.38 76.996,4.996 L76.996,80.996 L84.996,80.996 L84.996,56.996 L92.996,56.996 C95.204,56.996 96.996,55.204 96.996,52.996 C96.996,15.768 84.364,2.708 83.824,2.168 L83.824,2.168 Z M84.996,48.996 L84.996,21.968 C86.944,28.368 88.628,37.2 88.944,48.996 L84.996,48.996 L84.996,48.996 Z" id="Shape" fill="#3DE1BC"></path>
                        <path d="M32.996,16.996 L32.996,0.996 L24.996,0.996 L24.996,16.996 C24.996,19.944 23.376,22.496 20.996,23.888 L20.996,0.996 L12.996,0.996 L12.996,23.888 C10.616,22.496 8.996,19.948 8.996,16.996 L8.996,0.996 L0.996,0.996 L0.996,16.996 C0.996,24.428 6.116,30.636 12.996,32.428 L12.996,80.996 L20.996,80.996 L20.996,32.428 C27.876,30.636 32.996,24.428 32.996,16.996 L32.996,16.996 Z" id="Shape" fill="#3DE2BD"></path>
                        <path d="M48.996,28.996 C35.76,28.996 24.996,39.76 24.996,52.996 C24.996,66.232 35.76,76.996 48.996,76.996 C62.232,76.996 72.996,66.232 72.996,52.996 C72.996,39.76 62.232,28.996 48.996,28.996 L48.996,28.996 Z M48.996,68.996 C40.172,68.996 32.996,61.82 32.996,52.996 C32.996,44.176 40.172,36.996 48.996,36.996 C57.82,36.996 64.996,44.176 64.996,52.996 C64.996,61.82 57.82,68.996 48.996,68.996 L48.996,68.996 Z" id="Shape" fill="#82E29F"></path>
                        <path d="M54.996,44.996 C51.684,44.996 48.996,47.684 48.996,50.996 C48.996,47.684 46.308,44.996 42.996,44.996 C39.684,44.996 36.996,47.684 36.996,50.996 C36.996,56.996 48.996,64.996 48.996,64.996 C48.996,64.996 60.996,56.996 60.996,50.996 C60.996,47.684 58.308,44.996 54.996,44.996 L54.996,44.996 Z" id="Shape" fill="#F72B2B"></path>
                    </g>
                </g>
            </g>
        </g>
    </g>
</svg>